#!OML:ASF F:\VICON\USERDATA\INSTALL\rory3\rory3.ASF
:FULLY-SPECIFIED
:DEGREES
202
root -0.0142932 15.5902 0.941764 -11.5023 3.41049 -2.92789
lowerback 16.6782 0.565255 -2.39329
upperback 2.98803 0.464155 1.93066
thorax -6.185 0.291665 3.3176
lowerneck -13.309 -4.86657 -10.6319
upperneck 24.168 -6.72913 9.30434
head 10.6269 -3.02249 4.24825
rclavicle -2.82647e-016 6.53505e-015
rhumerus -44.3467 -3.33023 -76.7168
rradius 36.9842
rwrist 4.03683
rhand -15.2808 13.5194
rfingers 7.12502
rthumb 10.8939 -16.178
lclavicle -2.82647e-016 6.53505e-015
lhumerus -44.877 23.2588 65.782
lradius 28.3574
lwrist 1.12367
lhand -21.4096 15.1511
lfingers 7.12502
lthumb 4.97884 45.0726
rfemur -26.2958 -2.13286 26.9737
rtibia 62.8295
rfoot -18.9113 -6.70192
rtoes -3.11773
lfemur -28.9132 -0.0525513 -18.4376
ltibia 63.2648
lfoot -20.0614 -3.69385
ltoes -1.40784
203
root -0.021777 15.5584 1.03006 -11.6329 3.66644 -2.60625
lowerback 16.6605 0.58103 -2.71131
upperback 2.88754 0.421239 1.81121
thorax -6.28069 0.279143 3.38115
lowerneck -13.403 -4.92766 -10.5686
upperneck 24.37 -6.81615 9.22303
head 10.7248 -3.06322 4.19873
rclavicle 5.38194e-015 -4.99446e-015
rhumerus -43.7588 -6.1341 -75.983
rradius 34.8399
rwrist 4.93869
rhand -15.9225 12.4037
rfingers 7.12502
rthumb 10.2749 -17.3253
lclavicle 5.38194e-015 -4.99446e-015
lhumerus -44.3245 25.6649 65.4839
lradius 26.6947
lwrist 0.121099
lhand -20.9084 17.0251
lfingers 7.12502
lthumb 5.46281 46.9346
rfemur -26.0722 -2.94085 26.5279
rtibia 63.4097
rfoot -19.8161 -6.44021
rtoes -2.77081
lfemur -28.5672 0.383351 -18.7172
ltibia 63.6351
lfoot -20.6653 -4.52663
ltoes -0.0562077
204
root -0.0265556 15.5631 1.11216 -11.6823 4.10008 -2.29202
lowerback 16.5126 0.530646 -3.05604
upperback 2.8448 0.292835 1.73817
thorax -6.23655 0.22276 3.527
lowerneck -13.6244 -5.01007 -10.7118
upperneck 24.5288 -6.9162 9.32579
head 10.8492 -3.10492 4.24821
rclavicle 1.13032e-014 -1.15916e-014
rhumerus -43.3443 -8.34513 -75.4555
rradius 33.1674
rwrist 5.43322
rhand -16.7489 11.914
rfingers 7.12502
rthumb 9.47759 -17.8529
lclavicle 1.13032e-014 -1.15916e-014
lhumerus -43.7925 26.7783 66.2272
lradius 25.9199
lwrist 0.57985
lhand -20.278 17.5292
lfingers 7.12502
lthumb 6.07141 47.4222
rfemur -25.8204 -3.75261 26.0029
rtibia 63.7923
rfoot -20.6751 -5.91646
rtoes -1.3903
lfemur -28.1878 0.588793 -19.0548
ltibia 63.7407
lfoot -21.1219 -4.9917
ltoes 0.462784
205
root -0.0206502 15.5841 1.19322 -11.4719 4.45483 -2.05558
lowerback 15.9641 0.452877 -3.19188
upperback 2.77462 0.174565 1.63858
thorax -6.00257 0.163219 3.51914
lowerneck -13.6961 -5.08538 -10.7658
upperneck 24.5513 -7.02652 9.40236
head 10.8904 -3.14981 4.26945
rclavicle 8.29965e-015 -7.33018e-016
rhumerus -43.0543 -9.99757 -75.2618
rradius 31.8313
rwrist 5.53705
rhand -16.9264 11.3636
rfingers 7.12502
rthumb 9.30637 -18.4109
lclavicle 8.29965e-015 -7.33018e-016
lhumerus -42.4537 24.7478 69.8119
lradius 27.7556
lwrist 6.14219
lhand -23.313 26.668
lfingers 7.12502
lthumb 3.14082 56.6246
rfemur -25.7112 -4.52596 25.5737
rtibia 63.8978
rfoot -21.2157 -5.53476
rtoes -1.33426
lfemur -28.0358 0.798728 -19.342
ltibia 63.6936
lfoot -21.5561 -5.06128
ltoes 0.608317
206
root -0.0162479 15.5997 1.27731 -11.1533 4.33289 -2.13692
lowerback 15.2408 0.449027 -3.03952
upperback 2.60213 0.213606 1.64591
thorax -5.79434 0.177848 3.42747
lowerneck -13.5386 -5.09635 -10.6149
upperneck 24.4968 -7.04949 9.24284
head 10.8294 -3.16861 4.18134
rclavicle 4.80655e-016 2.53947e-014
rhumerus -43.03 -11.2048 -75.2091
rradius 30.76
rwrist 5.74508
rhand -16.4521 10.6545
rfingers 7.12502
rthumb 9.76398 -19.0992
lclavicle 4.80655e-016 2.53947e-014
lhumerus -42.1905 25.1825 70.5716
lradius 27.1993
lwrist 5.53973
lhand -22.1839 20.3058
lfingers 7.12502
lthumb 4.23121 50.2435
rfemur -25.6807 -4.85727 25.6733
rtibia 63.748
rfoot -21.4714 -5.34802
rtoes -1.48024
lfemur -28.0078 1.34605 -19.1439
ltibia 63.6215
lfoot -21.9643 -5.44498
ltoes 0.904232
207
root -0.0203227 15.6221 1.35994 -10.8222 3.93988 -2.3883
lowerback 14.7006 0.541416 -2.82786
upperback 2.26775 0.388702 1.75553
thorax -5.86796 0.266697 3.38764
lowerneck -13.3059 -5.10604 -10.5072
upperneck 24.5417 -7.07456 9.08288
head 10.7924 -3.19449 4.1041
rclavicle 1.58052e-014 1.17407e-014
rhumerus -43.2842 -11.9127 -75.2259
rradius 29.9118
rwrist 6.07029
rhand -15.7838 10.9361
rfingers 7.12502
rthumb 10.4087 -18.7862
lclavicle 1.58052e-014 1.17407e-014
lhumerus -41.6153 22.0271 74.1672
lradius 29.6067
lwrist 10.7938
lhand -25.1234 27.5412
lfingers 7.12502
lthumb 1.39237 57.5164
rfemur -25.5434 -4.81896 26.0717
rtibia 63.3397
rfoot -21.5978 -5.16688
rtoes -0.846408
lfemur -27.8986 1.99286 -18.669
ltibia 63.4034
lfoot -22.2655 -5.86053
ltoes 1.14153
208
root -0.0201704 15.6689 1.4373 -10.5896 3.71718 -2.51816
lowerback 14.2434 0.616603 -2.63929
upperback 2.10418 0.5298 1.79357
thorax -5.80035 0.333476 3.29231
lowerneck -13.5759 -5.2064 -10.5014
upperneck 24.6286 -7.21983 9.15169
head 10.8978 -3.24543 4.10557
rclavicle 5.45017e-015 4.68386e-015
rhumerus -43.2696 -12.4392 -75.4517
rradius 29.1945
rwrist 6.60434
rhand -15.3433 11.727
rfingers 7.12502
rthumb 10.8337 -17.9736
lclavicle 5.45017e-015 4.68386e-015
lhumerus -41.3104 21.4514 75.3214
lradius 29.684
lwrist 8.36852
lhand -23.5212 24.2477
lfingers 7.12502
lthumb 2.93978 54.2072
rfemur -25.106 -4.87879 26.2494
rtibia 62.7071
rfoot -21.6357 -4.97059
rtoes -0.685444
lfemur -27.5092 2.37442 -18.4059
ltibia 62.9318
lfoot -22.398 -5.86935
ltoes 1.11005
209
root -0.0144409 15.7366 1.51184 -10.5092 3.677 -2.45104
lowerback 13.8442 0.646809 -2.60357
upperback 2.10189 0.582317 1.77589
thorax -5.58626 0.354815 3.24231
lowerneck -13.9389 -5.34888 -10.4852
upperneck 24.541 -7.39821 9.19153
head 10.9595 -3.31105 4.08337
rclavicle 9.17053e-015 1.08338e-014
rhumerus -43.1111 -12.6926 -75.8328
rradius 28.6894
rwrist 7.55259
rhand -15.0707 12.4532
rfingers 7.12502
rthumb 11.0965 -17.2335
lclavicle 9.17053e-015 1.08338e-014
lhumerus -40.7367 21.7139 76.0519
lradius 29.1183
lwrist 5.18964
lhand -22.205 18.0398
lfingers 7.12502
lthumb 4.21084 47.978
rfemur -24.4053 -5.0081 26.1303
rtibia 61.882
rfoot -21.6089 -4.87445
rtoes -0.797244
lfemur -26.7741 2.461 -18.4377
ltibia 62.1565
lfoot -22.4371 -5.69264
ltoes 0.924463
210
root -0.00389465 15.8084 1.58967 -10.4138 3.48469 -2.24139
lowerback 13.4771 0.707198 -2.64854
upperback 1.99401 0.659921 1.72128
thorax -5.50371 0.393435 3.19567
lowerneck -13.7954 -5.37167 -10.4309
upperneck 24.2644 -7.43886 9.19081
head 10.8308 -3.32917 4.0632
rclavicle 7.95991e-016 -3.98889e-015
rhumerus -43.247 -12.7667 -76.1413
rradius 28.4997
rwrist 8.95069
rhand -15.0652 13.575
rfingers 7.12502
rthumb 11.1019 -16.1113
lclavicle 7.95991e-016 -3.98889e-015
lhumerus -41.1654 18.1099 79.1592
lradius 32.7911
lwrist 7.75017
lhand -23.6635 24.5081
lfingers 7.12502
lthumb 2.80229 54.4694
rfemur -23.6556 -4.8204 25.8857
rtibia 60.9527
rfoot -21.4947 -4.86767
rtoes -0.358237
lfemur -25.918 2.58181 -18.6383
ltibia 61.1708
lfoot -22.4158 -5.5517
ltoes 1.01279
211
root 0.00761761 15.8813 1.66766 -10.2195 3.22885 -2.06172
lowerback 13.1094 0.787387 -2.61621
upperback 1.76098 0.775019 1.664
thorax -5.5545 0.452806 3.09659
lowerneck -13.6884 -5.36129 -10.5065
upperneck 24.2689 -7.46036 9.34947
head 10.8236 -3.33136 4.13367
rclavicle -1.81032e-014 3.42904e-015
rhumerus -43.7259 -13.0443 -76.2661
rradius 28.7726
rwrist 10.3884
rhand -15.3118 14.4799
rfingers 7.12502
rthumb 10.864 -15.2191
lclavicle -1.81032e-014 3.42904e-015
lhumerus -41.4039 16.5992 80.7312
lradius 34.3119
lwrist 7.59027
lhand -24.2864 26.4756
lfingers 7.12502
lthumb 2.20077 56.444
rfemur -22.9222 -4.36328 25.7045
rtibia 59.93
rfoot -21.358 -4.93032
rtoes -0.0836331
lfemur -25.1177 2.58987 -18.8249
ltibia 60.045
lfoot -22.1842 -5.34995
ltoes 1.26681
212
root 0.0143784 15.9662 1.74276 -10.0129 3.09459 -1.8263
lowerback 12.8473 0.86062 -2.72102
upperback 1.42299 0.859524 1.61092
thorax -5.77383 0.504261 3.0858
lowerneck -13.7627 -5.3938 -10.5642
upperneck 24.6304 -7.5203 9.36896
head 10.9832 -3.35951 4.14969
rclavicle -1.94048e-014 -1.75427e-014
rhumerus -44.6045 -13.4025 -76.2585
rradius 29.4359
rwrist 11.5328
rhand -15.0172 13.9665
rfingers 7.12502
rthumb 11.1482 -15.7174
lclavicle -1.94048e-014 -1.75427e-014
lhumerus -41.733 15.7681 81.734
lradius 35.1896
lwrist 6.89292
lhand -24.3644 27.2331
lfingers 7.12502
lthumb 2.12543 57.2023
rfemur -22.1526 -3.94029 25.4646
rtibia 58.7936
rfoot -21.181 -4.97421
rtoes -0.141898
lfemur -24.2784 2.33966 -19.1086
ltibia 58.7796
lfoot -21.8577 -4.978
ltoes 1.12972
213
root 0.0205257 16.0631 1.8174 -9.92895 2.84094 -1.53672
lowerback 12.4926 0.967061 -2.91024
upperback 1.27478 0.979439 1.55922
thorax -5.74468 0.568684 3.11885
lowerneck -13.8281 -5.40155 -10.5823
upperneck 24.7216 -7.52854 9.3685
head 11.0321 -3.36325 4.15265
rclavicle 8.54929e-016 7.50412e-015
rhumerus -45.2182 -13.9866 -76.0961
rradius 29.8523
rwrist 12.7815
rhand -14.3864 12.4906
rfingers 7.12502
rthumb 11.7565 -17.1594
lclavicle 8.54929e-016 7.50412e-015
lhumerus -41.8126 15.1733 82.651
lradius 36.0768
lwrist 6.51552
lhand -23.9563 27.7094
lfingers 7.12502
lthumb 2.51958 57.6743
rfemur -21.2116 -3.42901 25.1712
rtibia 57.5283
rfoot -20.8565 -4.9446
rtoes 0.0951919
lfemur -23.2076 2.10016 -19.4461
ltibia 57.4138
lfoot -21.5529 -4.38222
ltoes 0.489867
214
root 0.0305763 16.1626 1.88457 -9.84034 2.5827 -1.50007
lowerback 12.0605 1.01223 -2.75922
upperback 1.21593 1.07027 1.55765
thorax -5.57042 0.607873 3.0183
lowerneck -13.8092 -5.39954 -10.6585
upperneck 24.4841 -7.52885 9.50747
head 10.9489 -3.35588 4.21181
rclavicle -1.23775e-014 -2.83268e-015
rhumerus -45.3266 -14.7137 -75.9087
rradius 29.869
rwrist 13.5899
rhand -14.372 11.1407
rfingers 7.12502
rthumb 11.7704 -18.5086
lclavicle -1.23775e-014 -2.83268e-015
lhumerus -41.506 14.8638 83.4356
lradius 36.5538
lwrist 6.54275
lhand -23.5922 26.464
lfingers 7.12502
lthumb 2.87118 56.4245
rfemur -20.2268 -2.9976 25.1378
rtibia 56.1401
rfoot -20.5129 -4.9245
rtoes 0.647279
lfemur -22.1784 1.79637 -19.5328
ltibia 56.0106
lfoot -21.2206 -3.78347
ltoes 0.0192131
